{"title":"Dedh Ishqiya (New Source) (Audio Cleaned) - DVDScr - X264 - MP3{","uid":9475212,"size":740939021,"categoryP":"video","categoryS":"movies","magnet":"?xt=urn:btih:6e608754ebd6ed2a3f77becd9269a4f82b8a6364&amp;dn=Dedh+Ishqiya+%28New+Source%29+%28Audio+Cleaned%29+-+DVDScr+-+X264+-+MP3%7B&amp;tr=udp%3A%2F%2Ftracker.openbittorrent.com%3A80&amp;tr=udp%3A%2F%2Fopen.demonii.com%3A1337&amp;tr=udp%3A%2F%2Ftracker.coppersurfer.tk%3A6969&amp;tr=udp%3A%2F%2Fexodus.desync.com%3A6969","seeders":1,"leechers":0,"uploader":"shailendramaxx","files":-1,"time":1389677588,"description":"\nComplete name                            : Dedh Ishqiya (New Source) (Audio Cleaned) - DVDScr - X264 - MP3{VikkyMaxx}\n\nFormat                                   : AVI\nFormat/Info                              : Audio Video Interleave\nFile size                                : 698 MiB\nDuration                                 : 2h 21mn\nOverall bit rate                         : 688 Kbps\n\n              A BIG THANKS TO - Team ICTV\n\nVideo:-\n\nID                                       : 0\nFormat                                   : MPEG-4 Visual\nFormat profile                           : Advanced Simple@L5\nFormat settings, BVOP                    : 2\nFormat settings, QPel                    : No\nFormat settings, GMC                     : No warppoints\nFormat settings, Matrix                  : Default (H.263)\nCodec ID                                 : XVID\nCodec ID/Hint                            : XviD\nDuration                                 : 2h 21mn\nBit rate                                 : 602 Kbps\nWidth                                    : 640 pixels\nHeight                                   : 272 pixels\nDisplay aspect ratio                     : 2.35:1\nFrame rate                               : 25.000 fps\nColor space                              : YUV\nChroma subsampling                       : 4:2:0\nBit depth                                : 8 bits\nScan type                                : Progressive\nCompression mode                         : Lossy\nBits/(Pixel*Frame)                       : 0.138\nStream size                              : 611 MiB (87%)\nWriting library                          : XviD 1.2.1 (UTC 2008-12-04)\n\nAudio:-\n\nID                                       : 1\nFormat                                   : MPEG Audio\nFormat version                           : Version 1\nFormat profile                           : Layer 3\nMode                                     : Joint stereo\nMode extension                           : MS Stereo\nCodec ID                                 : 55\nCodec ID/Hint                            : MP3\nDuration                                 : 2h 21mn\nBit rate mode                            : Constant\nBit rate                                 : 80.0 Kbps\nChannel(s)                               : 2 channels\nSampling rate                            : 32.0 KHz\nCompression mode                         : Lossy\nStream size                              : 81.1 MiB (12%)\nAlignment                                : Aligned on interleaves\nInterleave, duration                     : 160 ms (4.00 video frames)\nInterleave, preload duration             : 216 ms\nTitle                                    : Humari atariya - [0]_new\nWriting library                          : LAME3.99r\nEncoding settings                        : -m j -V 4 -q 2 -lowpass \n\nLANGUAGE -HINDI\n\nSCREENS:-\n\n[URL=http://imgur.com/CfM6pBH][IMG]http://i.imgur.com/CfM6pBH.jpg[/IMG][/URL]\n\n[URL=http://imgur.com/8pC3rjj][IMG]http://i.imgur.com/8pC3rjj.jpg[/IMG][/URL]\n\n[URL=http://imgur.com/jcmAoz8][IMG]http://i.imgur.com/jcmAoz8.jpg[/IMG][/URL]\n\n[URL=http://imgur.com/V62EOQP][IMG]http://i.imgur.com/V62EOQP.jpg[/IMG][/URL]\n\n[URL=http://imgur.com/4TeVaAR][IMG]http://i.imgur.com/4TeVaAR.jpg[/IMG][/URL]\n\n[URL=http://imgur.com/3hgNh7a][IMG]http://i.imgur.com/3hgNh7a.jpg[/IMG][/URL]\n\n[URL=http://imgur.com/qLEjGqr][IMG]http://i.imgur.com/qLEjGqr.jpg[/IMG][/URL]\n\n[URL=http://imgur.com/BB14oYT][IMG]http://i.imgur.com/BB14oYT.jpg[/IMG][/URL]\n\n[URL=http://imgur.com/SbgSTaL][IMG]http://i.imgur.com/SbgSTaL.jpg[/IMG][/URL]\n\n\n                        SAMPLE AND SCREENSHOTS INCLUDED\n\n\n \n            ********** PLEASE SEED AS LONG AS YOU CAN AFTER DOWNLOAD **********\n       \n                     ***** THANK YOU REGARDS - VIKKYMAXX *****\t","torrent":{"xt":"urn:btih:6e608754ebd6ed2a3f77becd9269a4f82b8a6364","amp;dn":"Dedh+Ishqiya+%28New+Source%29+%28Audio+Cleaned%29+-+DVDScr+-+X264+-+MP3%7B","amp;tr":["udp%3A%2F%2Ftracker.openbittorrent.com%3A80","udp%3A%2F%2Fopen.demonii.com%3A1337","udp%3A%2F%2Ftracker.coppersurfer.tk%3A6969","udp%3A%2F%2Fexodus.desync.com%3A6969"],"infoHash":"6e608754ebd6ed2a3f77becd9269a4f82b8a6364","infoHashBuffer":{"type":"Buffer","data":[110,96,135,84,235,214,237,42,63,119,190,205,146,105,164,248,43,138,99,100]},"announce":[],"urlList":[]}}